<svg width="30" height="28" viewBox="0 0 30 28" fill="none" xmlns="http://www.w3.org/2000/svg">
<path d="M25.6667 7.33423H4.33332C2.86056 7.33423 1.66666 8.52814 1.66666 10.0009V23.3342C1.66666 24.807 2.86056 26.0009 4.33332 26.0009H25.6667C27.1394 26.0009 28.3333 24.807 28.3333 23.3342V10.0009C28.3333 8.52814 27.1394 7.33423 25.6667 7.33423Z" stroke="black" stroke-width="2.66667" stroke-linecap="round" stroke-linejoin="round"/>
<path d="M20.3333 26.001V4.66764C20.3333 3.9604 20.0524 3.28212 19.5523 2.78203C19.0522 2.28193 18.3739 2.00098 17.6667 2.00098H12.3333C11.6261 2.00098 10.9478 2.28193 10.4477 2.78203C9.94761 3.28212 9.66666 3.9604 9.66666 4.66764V26.001" stroke="black" stroke-width="2.66667" stroke-linecap="round" stroke-linejoin="round"/>
</svg>
