<svg width="30" height="26" viewBox="0 0 30 26" fill="none" xmlns="http://www.w3.org/2000/svg">
<path d="M27.6923 20.7692C27.6923 21.3812 27.4491 21.9682 27.0164 22.4009C26.5836 22.8337 25.9966 23.0768 25.3846 23.0768H4.61534C4.0033 23.0768 3.41633 22.8337 2.98356 22.4009C2.55078 21.9682 2.30765 21.3812 2.30765 20.7692V8.07685C2.30765 7.46481 2.55078 6.87784 2.98356 6.44506C3.41633 6.01229 4.0033 5.76916 4.61534 5.76916H9.23073L11.5384 2.30762H18.4615L20.7692 5.76916H25.3846C25.9966 5.76916 26.5836 6.01229 27.0164 6.44506C27.4491 6.87784 27.6923 7.46481 27.6923 8.07685V20.7692Z" stroke="black" stroke-width="2.67" stroke-linecap="round" stroke-linejoin="round"/>
<path d="M14.9999 18.4615C17.5489 18.4615 19.6153 16.3951 19.6153 13.8461C19.6153 11.2971 17.5489 9.23071 14.9999 9.23071C12.4509 9.23071 10.3845 11.2971 10.3845 13.8461C10.3845 16.3951 12.4509 18.4615 14.9999 18.4615Z" stroke="black" stroke-width="2.67" stroke-linecap="round" stroke-linejoin="round"/>
</svg>
