<svg width="36" height="29" viewBox="0 0 36 29" fill="none" xmlns="http://www.w3.org/2000/svg">
<path d="M7.57893 0H28.421L35.8143 8.50616L18 29L0.185669 8.50616L7.57893 0ZM15.4648 1.52632L12.2476 7.63158H23.7524L20.5351 1.52632H15.4648V1.52632ZM11.988 9.15789L18 24.0608L24.0101 9.15789H11.9899H11.988ZM3.25893 7.63158H10.1899L13.4071 1.52632H8.56419L3.25893 7.63158ZM3.06567 9.15789L15.9972 24.0349L9.99662 9.15789H3.06567V9.15789ZM32.741 7.63158L27.4358 1.52632H22.5928L25.8101 7.63158H32.741ZM32.9343 9.15789H26.0034L20.0027 24.0349L32.9343 9.15789Z" fill="black"/>
</svg>
