<svg width="29" height="30" viewBox="0 0 29 30" fill="none" xmlns="http://www.w3.org/2000/svg">
<path d="M12.6544 5.18262H4.01238C3.35752 5.18262 2.72949 5.44371 2.26644 5.90847C1.80338 6.37322 1.54324 7.00357 1.54324 7.66083V25.0083C1.54324 25.6656 1.80338 26.2959 2.26644 26.7607C2.72949 27.2254 3.35752 27.4865 4.01238 27.4865H21.2963C21.9512 27.4865 22.5792 27.2254 23.0423 26.7607C23.5053 26.2959 23.7655 25.6656 23.7655 25.0083V16.3346" stroke="black" stroke-width="2.66667" stroke-linecap="round" stroke-linejoin="round"/>
<path d="M21.9136 3.32384C22.4048 2.83089 23.0709 2.55396 23.7655 2.55396C24.46 2.55396 25.1262 2.83089 25.6173 3.32384C26.1085 3.81678 26.3844 4.48536 26.3844 5.1825C26.3844 5.87963 26.1085 6.54821 25.6173 7.04116L13.8889 18.8127L8.95065 20.0518L10.1852 15.0954L21.9136 3.32384Z" stroke="black" stroke-width="2.66667" stroke-linecap="round" stroke-linejoin="round"/>
</svg>
