<svg width="29" height="29" viewBox="0 0 29 29" fill="none" xmlns="http://www.w3.org/2000/svg">
<rect width="29" height="29" rx="14.5" fill="white"/>
<path d="M26.3483 12.1336H25.375V12.0834H14.5V16.9167H21.3289C20.3326 19.7304 17.6556 21.7501 14.5 21.7501C10.4962 21.7501 7.24999 18.5039 7.24999 14.5001C7.24999 10.4963 10.4962 7.25008 14.5 7.25008C16.3481 7.25008 18.0295 7.94729 19.3098 9.08614L22.7275 5.66837C20.5694 3.6571 17.6827 2.41675 14.5 2.41675C7.82697 2.41675 2.41666 7.82706 2.41666 14.5001C2.41666 21.1731 7.82697 26.5834 14.5 26.5834C21.173 26.5834 26.5833 21.1731 26.5833 14.5001C26.5833 13.6899 26.4999 12.899 26.3483 12.1336Z" fill="#FFC107"/>
<path d="M3.80988 8.87589L7.77985 11.7874C8.85406 9.12783 11.4556 7.25008 14.5 7.25008C16.3481 7.25008 18.0295 7.94729 19.3098 9.08614L22.7275 5.66837C20.5695 3.6571 17.6828 2.41675 14.5 2.41675C9.85879 2.41675 5.83383 5.03702 3.80988 8.87589Z" fill="#FF3D00"/>
<path d="M14.5 26.5833C17.6211 26.5833 20.4571 25.3888 22.6013 23.4464L18.8615 20.2818C17.6075 21.2354 16.0753 21.7512 14.5 21.7499C11.3571 21.7499 8.68851 19.7459 7.68317 16.9492L3.7428 19.9852C5.74259 23.8983 9.8038 26.5833 14.5 26.5833Z" fill="#4CAF50"/>
<path d="M26.3483 12.1334H25.375V12.0833H14.5V16.9166H21.3289C20.8523 18.2557 19.9939 19.4258 18.8597 20.2824L18.8615 20.2812L22.6013 23.4458C22.3366 23.6863 26.5833 20.5416 26.5833 14.4999C26.5833 13.6897 26.5 12.8989 26.3483 12.1334Z" fill="#1976D2"/>
</svg>
