<svg width="30" height="28" viewBox="0 0 30 28" fill="none" xmlns="http://www.w3.org/2000/svg">
<g clip-path="url(#clip0)">
<path d="M26.7926 3.59509C26.1112 2.9219 25.3022 2.38789 24.4118 2.02355C23.5215 1.65921 22.5671 1.47168 21.6033 1.47168C20.6395 1.47168 19.6852 1.65921 18.7948 2.02355C17.9044 2.38789 17.0954 2.9219 16.4141 3.59509L15.0001 4.99152L13.586 3.59509C12.2098 2.23594 10.3431 1.47238 8.39679 1.47238C6.45045 1.47238 4.58383 2.23594 3.20756 3.59509C1.83129 4.95423 1.05811 6.79762 1.05811 8.71974C1.05811 10.6419 1.83129 12.4852 3.20756 13.8444L4.62159 15.2408L15.0001 25.4901L25.3785 15.2408L26.7926 13.8444C27.4742 13.1715 28.015 12.3726 28.3839 11.4933C28.7528 10.614 28.9427 9.67154 28.9427 8.71974C28.9427 7.76794 28.7528 6.82547 28.3839 5.94616C28.015 5.06686 27.4742 4.26795 26.7926 3.59509V3.59509Z" stroke="black" stroke-width="2.67" stroke-linecap="round" stroke-linejoin="round"/>
</g>
<defs>
<clipPath id="clip0">
<rect width="30" height="27.3913" fill="white"/>
</clipPath>
</defs>
</svg>
