<svg width="38" height="25" viewBox="0 0 38 25" fill="none" xmlns="http://www.w3.org/2000/svg">
<path d="M37.2722 12.1044C36.6372 11.115 31.0462 2.33 26.4614 0.90875C25.8654 0.720625 25.2006 0.625 24.4844 0.625C22.9659 0.625 21.1908 1.05312 19.2082 1.89687L19.0006 1.97812H18.9994L18.7918 1.89687C16.8099 1.05312 15.0348 0.625 13.5156 0.625C12.7994 0.625 12.1346 0.720625 11.5386 0.909375C6.95381 2.33062 1.36224 11.1156 0.727802 12.105C0.256932 12.8388 0.336856 13.1825 0.817639 13.8562C1.38392 14.6487 1.86346 15.4994 2.33371 16.4263C4.22587 20.1519 6.36956 24.375 18.9994 24.375H19.0006C31.6305 24.375 33.7742 20.1519 35.6657 16.4256C36.1372 15.4987 36.6161 14.6475 37.1824 13.8556C37.6626 13.1819 37.7431 12.8381 37.2722 12.1044V12.1044ZM19.0006 22.8906C19 22.8906 19 22.8906 19.0006 22.8906H18.9994C5.72707 22.8906 5.07901 18.2856 2.88637 14.3919C3.7773 14.3 4.68311 13.9981 5.6391 13.58C9.15079 16.4756 13.2201 15.0481 18.9988 15.0481H19.0006C24.7793 15.0481 28.8486 16.4756 32.3603 13.58C33.3163 13.9981 34.2221 14.2994 35.1131 14.3919C32.921 18.2856 32.273 22.8906 19.0006 22.8906V22.8906ZM9.12601 11.8819C11.73 10.6187 14.8991 9.33563 19 9.33563H19.0006C23.1009 9.33563 26.27 10.6187 28.8747 11.8819H9.12601V11.8819ZM35.6583 12.9419C32.1367 12.9419 27.4757 7.85063 19.0006 7.85063H18.9994C10.5244 7.85063 5.86338 12.9419 2.34177 12.9419C2.19989 12.9419 2.05863 12.9338 1.91923 12.9163C1.91923 12.9163 7.72765 3.63875 11.9494 2.33C12.4047 2.18625 12.9258 2.10938 13.515 2.10938C14.787 2.10938 16.3731 2.46813 18.2757 3.28063C18.513 3.3725 18.7559 3.47125 18.9988 3.5775H19C19.2429 3.47125 19.4858 3.3725 19.7231 3.28063C21.6251 2.46813 23.2118 2.10938 24.4838 2.10938C25.073 2.10938 25.5941 2.18625 26.0494 2.33C30.2712 3.63937 36.0796 12.9163 36.0796 12.9163C35.9398 12.9336 35.7991 12.9422 35.6583 12.9419" fill="black"/>
</svg>
