<svg width="42" height="14" viewBox="0 0 42 14" fill="none" xmlns="http://www.w3.org/2000/svg">
<path d="M37.875 5.75408C34.125 5.75408 32.25 0.00732422 26.625 0.00732422C21 0.00732422 21 3.83849 21 3.83849C21 3.83849 21 0.00732422 15.375 0.00732422C9.75 0.00732422 7.875 5.75408 4.125 5.75408C2.25 5.75408 0.375 3.83849 0.375 3.83849C0.375 3.83849 2.25 13.4164 9.75 13.4164C19.125 13.4164 21 7.66966 21 7.66966C21 7.66966 22.875 13.4164 32.25 13.4164C39.75 13.4164 41.625 3.83849 41.625 3.83849C41.625 3.83849 39.75 5.75408 37.875 5.75408Z" fill="black"/>
</svg>
