<svg width="30" height="30" viewBox="0 0 30 30" fill="none" xmlns="http://www.w3.org/2000/svg">
<path d="M15.0002 10C12.2377 10 10.0002 12.2375 10.0002 15C10.0002 17.7625 12.2377 20 15.0002 20C17.7627 20 20.0002 17.7625 20.0002 15C20.0002 12.2375 17.7627 10 15.0002 10ZM26.1752 13.75C25.6002 8.5375 21.4627 4.4 16.2502 3.825V1.25H13.7502V3.825C8.53771 4.4 4.40021 8.5375 3.82521 13.75H1.25021V16.25H3.82521C4.40021 21.4625 8.53771 25.6 13.7502 26.175V28.75H16.2502V26.175C21.4627 25.6 25.6002 21.4625 26.1752 16.25H28.7502V13.75H26.1752V13.75ZM15.0002 23.75C10.1627 23.75 6.25021 19.8375 6.25021 15C6.25021 10.1625 10.1627 6.25 15.0002 6.25C19.8377 6.25 23.7502 10.1625 23.7502 15C23.7502 19.8375 19.8377 23.75 15.0002 23.75Z" fill="black"/>
</svg>
