<svg width="300" height="209" viewBox="0 0 300 209" fill="none" xmlns="http://www.w3.org/2000/svg">
<g clip-path="url(#clip0)">
<path d="M56.9143 44.702C66.377 44.702 74.048 37.0321 74.048 27.5708C74.048 18.1094 66.377 10.4395 56.9143 10.4395C47.4515 10.4395 39.7805 18.1094 39.7805 27.5708C39.7805 37.0321 47.4515 44.702 56.9143 44.702Z" fill="#FF6584"/>
<path d="M140.277 91.8456C140.277 132.268 116.243 146.382 86.5954 146.382C56.9482 146.382 32.9143 132.268 32.9143 91.8456C32.9143 51.4234 86.5954 0 86.5954 0C86.5954 0 140.277 51.4234 140.277 91.8456Z" fill="#F2F2F2"/>
<path d="M84.6399 140.199L85.1898 106.369L108.07 64.5165L85.276 101.062L85.5231 85.8506L101.292 55.571L85.5884 81.8252L86.0328 54.4671L102.919 30.3607L86.103 50.165L86.3806 0L84.6351 66.4095L84.7786 63.6698L67.6108 37.3955L84.5033 68.9288L82.9037 99.4831L82.8561 98.6723L63.0644 71.0223L82.7961 101.537L82.5961 105.358L82.5603 105.416L82.5766 105.73L78.5183 183.248H83.9406L84.5912 143.208L104.274 112.768L84.6399 140.199Z" fill="#3F3D56"/>
<path d="M300 108.401C300 141.489 280.327 153.042 256.059 153.042C231.792 153.042 212.119 141.489 212.119 108.401C212.119 75.314 256.059 33.2214 256.059 33.2214C256.059 33.2214 300 75.314 300 108.401Z" fill="#F2F2F2"/>
<path d="M254.459 147.98L254.909 120.289L273.637 86.0311L254.979 115.945L255.182 103.494L268.089 78.7085L255.235 100.199L255.599 77.8051L269.421 58.0728L255.656 74.2838L255.884 33.2212L254.455 87.5804L254.572 85.3381L240.519 63.8311L254.347 89.6429L253.038 114.653L252.998 113.989L236.798 91.3563L252.949 116.334L252.786 119.462L252.756 119.509L252.77 119.766L249.448 183.219H253.886L254.419 150.444L270.53 125.527L254.459 147.98Z" fill="#3F3D56"/>
<path d="M148.473 189.652C230.472 189.652 296.946 186.293 296.946 182.148C296.946 178.004 230.472 174.644 148.473 174.644C66.4736 174.644 0 178.004 0 182.148C0 186.293 66.4736 189.652 148.473 189.652Z" fill="#3F3D56"/>
<path d="M238.921 195.832C252.966 195.832 264.351 195.256 264.351 194.546C264.351 193.836 252.966 193.261 238.921 193.261C224.877 193.261 213.491 193.836 213.491 194.546C213.491 195.256 224.877 195.832 238.921 195.832Z" fill="#3F3D56"/>
<path d="M146.901 208.23C160.945 208.23 172.331 207.654 172.331 206.944C172.331 206.235 160.945 205.659 146.901 205.659C132.856 205.659 121.471 206.235 121.471 206.944C121.471 207.654 132.856 208.23 146.901 208.23Z" fill="#3F3D56"/>
<path d="M77.0871 199.486C109.174 199.486 135.185 198.171 135.185 196.549C135.185 194.927 109.174 193.613 77.0871 193.613C45.0004 193.613 18.989 194.927 18.989 196.549C18.989 198.171 45.0004 199.486 77.0871 199.486Z" fill="#3F3D56"/>
<path d="M25.9908 172.724C37.6714 172.724 47.1403 163.256 47.1403 151.577C47.1403 139.898 37.6714 130.431 25.9908 130.431C14.3102 130.431 4.84126 139.898 4.84126 151.577C4.84126 163.256 14.3102 172.724 25.9908 172.724Z" fill="#2F2E41"/>
<path d="M22.5829 168.134L16.1581 168.058L16.0225 179.568L22.4472 179.643L22.5829 168.134Z" fill="#2F2E41"/>
<path d="M35.4323 168.286L29.0076 168.21L28.872 179.719L35.2967 179.795L35.4323 168.286Z" fill="#2F2E41"/>
<path d="M26.7289 179.828C26.7419 178.719 24.3555 177.792 21.3986 177.757C18.4417 177.722 16.034 178.593 16.021 179.702C16.0079 180.81 18.3944 181.737 21.3513 181.772C24.3082 181.807 26.7158 180.936 26.7289 179.828Z" fill="#2F2E41"/>
<path d="M39.5815 179.711C39.5946 178.603 37.2081 177.676 34.2512 177.641C31.2943 177.606 28.8867 178.477 28.8736 179.585C28.8605 180.694 31.247 181.621 34.2039 181.656C37.1608 181.691 39.5684 180.82 39.5815 179.711Z" fill="#2F2E41"/>
<path d="M26.5893 153.457C30.5814 153.457 33.8176 150.222 33.8176 146.23C33.8176 142.239 30.5814 139.003 26.5893 139.003C22.5972 139.003 19.361 142.239 19.361 146.23C19.361 150.222 22.5972 153.457 26.5893 153.457Z" fill="white"/>
<path d="M26.5893 148.639C27.92 148.639 28.9987 147.561 28.9987 146.23C28.9987 144.9 27.92 143.821 26.5893 143.821C25.2586 143.821 24.1799 144.9 24.1799 146.23C24.1799 147.561 25.2586 148.639 26.5893 148.639Z" fill="#3F3D56"/>
<path d="M5.70821 131.671C4.09071 124.005 9.6403 116.343 18.1036 114.558C26.5668 112.773 34.7389 117.54 36.3564 125.207C37.9739 132.873 32.3465 135.627 23.8832 137.413C15.42 139.198 7.32571 139.338 5.70821 131.671Z" fill="#7F4CD2"/>
<path d="M58.2529 163.374C58.2529 178.117 49.4879 183.264 38.6748 183.264C38.4243 183.264 38.1743 183.262 37.9246 183.256C37.4236 183.245 36.9273 183.221 36.4371 183.188C26.6785 182.498 19.0968 177.085 19.0968 163.374C19.0968 149.185 37.2315 131.281 38.5937 129.956L38.5961 129.954C38.6486 129.902 38.6748 129.877 38.6748 129.877C38.6748 129.877 58.2529 148.632 58.2529 163.374Z" fill="#7F4CD2"/>
<path d="M37.9614 181.009L45.122 171.005L37.9435 182.108L37.9245 183.256C37.4235 183.245 36.9272 183.221 36.437 183.188L37.2088 168.438L37.2028 168.324L37.2159 168.302L37.2887 166.909L30.0923 155.779L37.3113 165.865L37.328 166.16L37.9113 155.016L31.7503 143.515L37.9865 153.06L38.5936 129.956L38.596 129.877V129.954L38.4946 148.173L44.6282 140.95L38.4696 149.742L38.3074 159.72L44.0342 150.144L38.2835 161.188L38.1929 166.735L46.5069 153.407L38.1618 168.671L37.9614 181.009Z" fill="#3F3D56"/>
<path d="M190.743 172.495C202.424 172.495 211.893 163.027 211.893 151.348C211.893 139.669 202.424 130.202 190.743 130.202C179.063 130.202 169.594 139.669 169.594 151.348C169.594 163.027 179.063 172.495 190.743 172.495Z" fill="#2F2E41"/>
<path d="M192.548 168.156L186.407 170.043L189.789 181.045L195.93 179.158L192.548 168.156Z" fill="#2F2E41"/>
<path d="M204.832 164.383L198.69 166.27L202.072 177.272L208.213 175.385L204.832 164.383Z" fill="#2F2E41"/>
<path d="M195.536 181.519C198.362 180.651 200.39 179.087 200.064 178.028C199.738 176.968 197.183 176.813 194.356 177.681C191.529 178.55 189.502 180.113 189.828 181.173C190.154 182.233 192.709 182.388 195.536 181.519Z" fill="#2F2E41"/>
<path d="M207.74 177.489C210.567 176.621 212.594 175.057 212.269 173.998C211.943 172.938 209.387 172.783 206.561 173.651C203.734 174.52 201.707 176.083 202.033 177.143C202.358 178.203 204.914 178.358 207.74 177.489Z" fill="#2F2E41"/>
<path d="M189.682 153.301C193.674 153.301 196.911 150.065 196.911 146.074C196.911 142.082 193.674 138.847 189.682 138.847C185.69 138.847 182.454 142.082 182.454 146.074C182.454 150.065 185.69 153.301 189.682 153.301Z" fill="white"/>
<path d="M189.682 148.483C191.013 148.483 192.092 147.404 192.092 146.074C192.092 144.743 191.013 143.665 189.682 143.665C188.352 143.665 187.273 144.743 187.273 146.074C187.273 147.404 188.352 148.483 189.682 148.483Z" fill="#3F3D56"/>
<path d="M165.355 138.576C161.476 131.769 164.424 122.779 171.939 118.498C179.455 114.217 188.692 116.266 192.571 123.074C196.45 129.881 191.931 134.221 184.415 138.502C176.9 142.783 169.234 145.384 165.355 138.576Z" fill="#7F4CD2"/>
<path d="M153.024 160.675C153.024 174.208 144.978 178.933 135.052 178.933C134.823 178.933 134.593 178.93 134.364 178.925C133.904 178.915 133.448 178.893 132.998 178.863C124.04 178.229 117.081 173.261 117.081 160.675C117.081 147.65 133.728 131.214 134.978 129.998L134.98 129.996C135.028 129.949 135.052 129.926 135.052 129.926C135.052 129.926 153.024 147.142 153.024 160.675Z" fill="#7F4CD2"/>
<path d="M134.398 176.862L140.971 167.679L134.381 177.871L134.364 178.925C133.904 178.915 133.448 178.893 132.998 178.863L133.707 165.323L133.701 165.218L133.713 165.198L133.78 163.92L127.174 153.703L133.801 162.961L133.816 163.232L134.352 153.002L128.696 142.445L134.421 151.207L134.978 129.998L134.98 129.926V129.996L134.887 146.72L140.517 140.09L134.864 148.161L134.715 157.32L139.972 148.53L134.693 158.668L134.61 163.76L142.242 151.525L134.582 165.537L134.398 176.862Z" fill="#3F3D56"/>
<path d="M223.701 166.319C223.701 181.061 214.936 186.209 204.123 186.209C203.873 186.209 203.622 186.206 203.373 186.2C202.872 186.19 202.376 186.166 201.885 186.132C192.127 185.442 184.545 180.03 184.545 166.319C184.545 152.13 202.68 134.225 204.042 132.9L204.044 132.898C204.097 132.847 204.123 132.822 204.123 132.822C204.123 132.822 223.701 151.576 223.701 166.319Z" fill="#7F4CD2"/>
<path d="M203.41 183.953L210.57 173.949L203.392 185.052L203.373 186.2C202.872 186.19 202.375 186.166 201.885 186.132L202.657 171.383L202.651 171.268L202.664 171.247L202.737 169.854L195.541 158.724L202.76 168.809L202.776 169.105L203.36 157.96L197.199 146.46L203.435 156.005L204.042 132.9L204.044 132.822V132.898L203.943 151.117L210.076 143.894L203.918 152.687L203.756 162.664L209.482 153.088L203.732 164.133L203.641 169.68L211.955 156.352L203.61 171.615L203.41 183.953Z" fill="#3F3D56"/>
<path d="M192.087 164.007C192.872 162.351 189.231 158.98 183.955 156.477C178.678 153.975 173.763 153.289 172.977 154.945C172.192 156.602 175.832 159.973 181.109 162.475C186.386 164.978 191.301 165.663 192.087 164.007Z" fill="#2F2E41"/>
<path d="M29.3089 162.072C29.991 160.37 26.1493 157.229 20.7283 155.057C15.3072 152.884 10.3597 152.503 9.67753 154.204C8.99541 155.906 12.8371 159.046 18.2581 161.219C23.6791 163.391 28.6267 163.773 29.3089 162.072Z" fill="#2F2E41"/>
</g>
<defs>
<clipPath id="clip0">
<rect width="300" height="208.23" fill="white"/>
</clipPath>
</defs>
</svg>
