<svg width="30" height="30" viewBox="0 0 30 30" fill="none" xmlns="http://www.w3.org/2000/svg">
<path d="M21.6667 3.00105C22.0168 2.65086 22.4326 2.37307 22.8901 2.18355C23.3477 1.99403 23.8381 1.89648 24.3333 1.89648C24.8286 1.89648 25.319 1.99403 25.7765 2.18355C26.2341 2.37307 26.6498 2.65086 27 3.00105C27.3502 3.35125 27.628 3.76698 27.8175 4.22453C28.007 4.68208 28.1046 5.17247 28.1046 5.66772C28.1046 6.16297 28.007 6.65336 27.8175 7.11091C27.628 7.56846 27.3502 7.9842 27 8.33439L8.99999 26.3344L1.66666 28.3344L3.66666 21.0011L21.6667 3.00105Z" stroke="black" stroke-width="2.66667" stroke-linecap="round" stroke-linejoin="round"/>
</svg>
