<svg width="28" height="30" viewBox="0 0 28 30" fill="none" xmlns="http://www.w3.org/2000/svg">
<path d="M24.8276 20.9717V24.363C24.8288 24.6778 24.7666 24.9894 24.6449 25.2779C24.5232 25.5663 24.3447 25.8253 24.1208 26.0381C23.8969 26.251 23.6326 26.413 23.3448 26.5139C23.057 26.6147 22.752 26.6522 22.4494 26.6238C19.0925 26.2459 15.868 25.0572 13.0349 23.1534C10.399 21.4178 8.16433 19.1021 6.48942 16.3708C4.64575 13.4217 3.49841 10.0641 3.14032 6.56993C3.11306 6.25732 3.14892 5.94226 3.2456 5.64481C3.34228 5.34735 3.49767 5.07401 3.70189 4.84219C3.9061 4.61038 4.15466 4.42516 4.43173 4.29834C4.70881 4.17152 5.00833 4.10587 5.31123 4.10558H8.58396C9.11339 4.10018 9.62664 4.29445 10.0281 4.65218C10.4295 5.00991 10.6917 5.50669 10.7658 6.04993C10.9039 7.13522 11.1601 8.20083 11.5294 9.22645C11.6762 9.63106 11.708 10.0708 11.6209 10.4935C11.5339 10.9163 11.3318 11.3043 11.0385 11.6117L9.65305 13.0473C11.206 15.8774 13.4674 18.2207 16.1985 19.8299L17.584 18.3943C17.8806 18.0903 18.255 17.8809 18.663 17.7907C19.071 17.7006 19.4953 17.7335 19.8858 17.8856C20.8755 18.2683 21.9039 18.5337 22.9512 18.6769C23.4812 18.7544 23.9651 19.0309 24.3111 19.454C24.657 19.8772 24.8409 20.4173 24.8276 20.9717Z" stroke="black" stroke-width="2.67" stroke-linecap="round" stroke-linejoin="round"/>
</svg>
