<svg width="30" height="32" viewBox="0 0 30 32" fill="none" xmlns="http://www.w3.org/2000/svg">
<path d="M6.13881 11.4151C8.77958 11.4151 10.9204 9.27437 10.9204 6.63359C10.9204 3.99282 8.77958 1.85205 6.13881 1.85205C3.49804 1.85205 1.35727 3.99282 1.35727 6.63359C1.35727 9.27437 3.49804 11.4151 6.13881 11.4151Z" stroke="black" stroke-width="2.66667" stroke-linecap="round" stroke-linejoin="round"/>
<path d="M6.13881 30.5414C8.77958 30.5414 10.9204 28.4006 10.9204 25.7598C10.9204 23.119 8.77958 20.9783 6.13881 20.9783C3.49804 20.9783 1.35727 23.119 1.35727 25.7598C1.35727 28.4006 3.49804 30.5414 6.13881 30.5414Z" stroke="black" stroke-width="2.66667" stroke-linecap="round" stroke-linejoin="round"/>
<path d="M28.4527 3.44604L9.51776 22.381" stroke="black" stroke-width="2.66667" stroke-linecap="round" stroke-linejoin="round"/>
<path d="M19.6387 20.1494L28.4527 28.9475" stroke="black" stroke-width="2.66667" stroke-linecap="round" stroke-linejoin="round"/>
<path d="M9.51779 10.0125L15.7019 16.1966" stroke="black" stroke-width="2.66667" stroke-linecap="round" stroke-linejoin="round"/>
</svg>
