<svg width="23" height="30" viewBox="0 0 23 30" fill="none" xmlns="http://www.w3.org/2000/svg">
<g clip-path="url(#clip0)">
<path d="M8.57144 5.625H17.1429V7.5H8.57144V5.625Z" fill="black"/>
<path d="M8.57144 9.375H17.1429V11.25H8.57144V9.375Z" fill="black"/>
<path d="M8.57144 13.125H17.1429V15H8.57144V13.125Z" fill="black"/>
<path d="M8.57144 16.875H17.1429V18.75H8.57144V16.875Z" fill="black"/>
<path d="M8.57144 20.625H17.1429V22.5H8.57144V20.625Z" fill="black"/>
<path d="M4.76193 5.625H6.66669V7.5H4.76193V5.625Z" fill="black"/>
<path d="M4.76193 9.375H6.66669V11.25H4.76193V9.375Z" fill="black"/>
<path d="M4.76193 13.125H6.66669V15H4.76193V13.125Z" fill="black"/>
<path d="M4.76193 16.875H6.66669V18.75H4.76193V16.875Z" fill="black"/>
<path d="M4.76193 20.625H6.66669V22.5H4.76193V20.625Z" fill="black"/>
<path d="M20.9524 0H1.90476C1.39959 0 0.915104 0.197544 0.557892 0.549175C0.20068 0.900805 0 1.37772 0 1.875V28.125C0 28.6223 0.20068 29.0992 0.557892 29.4508C0.915104 29.8025 1.39959 30 1.90476 30H20.9524C21.4576 30 21.942 29.8025 22.2993 29.4508C22.6565 29.0992 22.8571 28.6223 22.8571 28.125V1.875C22.8571 1.37772 22.6565 0.900805 22.2993 0.549175C21.942 0.197544 21.4576 0 20.9524 0ZM20.9524 28.125H1.90476V1.875H20.9524V28.125Z" fill="black"/>
</g>
<defs>
<clipPath id="clip0">
<rect width="22.8571" height="30" fill="white"/>
</clipPath>
</defs>
</svg>
