<svg width="28" height="30" viewBox="0 0 28 30" fill="none" xmlns="http://www.w3.org/2000/svg">
<path d="M2 7H26" stroke="black" stroke-width="2.66667" stroke-linecap="round" stroke-linejoin="round"/>
<path d="M8.66666 7.00008V4.33341C8.66666 3.62617 8.94761 2.94789 9.44771 2.4478C9.9478 1.9477 10.6261 1.66675 11.3333 1.66675H16.6667C17.3739 1.66675 18.0522 1.9477 18.5523 2.4478C19.0524 2.94789 19.3333 3.62617 19.3333 4.33341V7.00008M23.3333 7.00008V25.6667C23.3333 26.374 23.0524 27.0523 22.5523 27.5524C22.0522 28.0525 21.3739 28.3334 20.6667 28.3334H7.33332C6.62608 28.3334 5.9478 28.0525 5.4477 27.5524C4.94761 27.0523 4.66666 26.374 4.66666 25.6667V7.00008H23.3333Z" stroke="black" stroke-width="2.66667" stroke-linecap="round" stroke-linejoin="round"/>
<path d="M11.3333 13.6667V21.6667" stroke="black" stroke-width="2.66667" stroke-linecap="round" stroke-linejoin="round"/>
<path d="M16.6667 13.6667V21.6667" stroke="black" stroke-width="2.66667" stroke-linecap="round" stroke-linejoin="round"/>
</svg>
