<svg width="300" height="271" viewBox="0 0 300 271" fill="none" xmlns="http://www.w3.org/2000/svg">
<g clip-path="url(#clip0)">
<path d="M74.3296 68.6552C69.1711 53.2138 53.2412 44.6316 42.7616 48.1423C32.282 51.653 24.7156 68.1063 29.874 83.5478C34.6489 97.8408 49.1172 106.092 59.0704 104.62C58.9986 104.745 58.9513 104.882 58.9311 105.025L58.6268 107.567C58.6036 107.761 58.6303 107.957 58.7042 108.138C58.7782 108.318 58.897 108.477 59.0494 108.599C59.2018 108.72 59.3827 108.801 59.575 108.833C59.7673 108.865 59.9645 108.847 60.1479 108.781L65.275 106.94C65.4584 106.874 65.622 106.762 65.7502 106.615C65.8784 106.468 65.967 106.291 66.0075 106.1C66.048 105.909 66.0391 105.711 65.9816 105.525C65.9242 105.338 65.8201 105.169 65.6792 105.035L63.8311 103.266C63.7654 103.205 63.6928 103.153 63.6149 103.11C72.4922 98.3192 79.1148 82.9793 74.3296 68.6552Z" fill="#F2F2F2"/>
<path d="M55.6551 57.2948C59.939 59.5088 63.2106 63.2853 64.7945 67.8448C66.3784 72.4042 66.1538 77.3987 64.167 81.7971C63.7233 82.8085 65.3548 83.3403 65.7955 82.3356C67.8816 77.5765 68.0937 72.2035 66.3895 67.2943C64.6853 62.3851 61.1907 58.3025 56.6065 55.8654C55.6389 55.352 54.6803 56.7776 55.6551 57.2948Z" fill="white"/>
<path d="M283.178 46.1472C278.019 30.7057 262.089 22.1236 251.61 25.6342C241.13 29.1449 233.564 45.5983 238.722 61.0397C243.497 75.3327 257.965 83.5841 267.918 82.1116C267.847 82.2366 267.799 82.3742 267.779 82.517L267.475 85.0589C267.452 85.2527 267.478 85.4491 267.552 85.6297C267.626 85.8102 267.745 85.9689 267.898 86.0905C268.05 86.2122 268.231 86.2928 268.423 86.3247C268.615 86.3566 268.813 86.3388 268.996 86.2729L274.123 84.432C274.307 84.3661 274.47 84.2544 274.598 84.1074C274.727 83.9604 274.815 83.783 274.856 83.5921C274.896 83.4012 274.887 83.2031 274.83 83.0166C274.772 82.8301 274.668 82.6614 274.527 82.5266L272.679 80.7575C272.614 80.6973 272.541 80.6451 272.463 80.6019C281.34 75.8112 287.963 60.4712 283.178 46.1472Z" fill="#F2F2F2"/>
<path d="M264.503 34.7865C268.787 37.0005 272.059 40.777 273.642 45.3365C275.226 49.8959 275.002 54.8904 273.015 59.2888C272.571 60.3002 274.203 60.832 274.644 59.8273C276.73 55.0681 276.942 49.6952 275.238 44.786C273.533 39.8768 270.039 35.7942 265.455 33.3571C264.487 32.8437 263.528 34.2693 264.503 34.7865Z" fill="white"/>
<path d="M161.896 21.2941C156.737 5.85266 140.808 -2.72947 130.328 0.781201C119.848 4.29187 112.282 20.7453 117.44 36.1867C122.215 50.4797 136.684 58.731 146.637 57.2586C146.565 57.3836 146.518 57.5212 146.498 57.6639L146.193 60.2059C146.17 60.3996 146.197 60.5961 146.271 60.7767C146.345 60.9572 146.463 61.1158 146.616 61.2375C146.768 61.3591 146.949 61.4397 147.141 61.4716C147.334 61.5036 147.531 61.4858 147.714 61.4199L152.841 59.5789C153.025 59.5131 153.188 59.4013 153.317 59.2543C153.445 59.1074 153.533 58.93 153.574 58.7391C153.614 58.5482 153.605 58.3501 153.548 58.1636C153.491 57.9771 153.386 57.8084 153.246 57.6735L151.397 55.9045C151.332 55.8443 151.259 55.792 151.181 55.7489C160.058 50.9581 166.681 35.6182 161.896 21.2941Z" fill="#F2F2F2"/>
<path d="M143.221 9.93348C147.505 12.1475 150.777 15.9239 152.361 20.4834C153.945 25.0429 153.72 30.0373 151.733 34.4358C151.29 35.4471 152.921 35.979 153.362 34.9742C155.448 30.2151 155.66 24.8422 153.956 19.933C152.252 15.0237 148.757 10.9412 144.173 8.50407C143.205 7.99063 142.247 9.41623 143.221 9.93348Z" fill="white"/>
<path d="M136.024 95.5956C136.703 95.5956 137.253 95.0446 137.253 94.3649C137.253 93.6853 136.703 93.1343 136.024 93.1343C135.345 93.1343 134.795 93.6853 134.795 94.3649C134.795 95.0446 135.345 95.5956 136.024 95.5956Z" fill="#CCCCCC"/>
<path d="M133.405 144.963C134.745 144.963 135.832 143.875 135.832 142.532C135.832 141.19 134.745 140.101 133.405 140.101C132.064 140.101 130.977 141.19 130.977 142.532C130.977 143.875 132.064 144.963 133.405 144.963Z" fill="#CCCCCC"/>
<path d="M92.7608 135.602C93.5356 135.602 94.1637 134.973 94.1637 134.197C94.1637 133.421 93.5356 132.792 92.7608 132.792C91.986 132.792 91.358 133.421 91.358 134.197C91.358 134.973 91.986 135.602 92.7608 135.602Z" fill="#CCCCCC"/>
<path d="M114.073 112.6C114.912 112.6 115.592 111.919 115.592 111.078C115.592 110.238 114.912 109.557 114.073 109.557C113.234 109.557 112.554 110.238 112.554 111.078C112.554 111.919 113.234 112.6 114.073 112.6Z" fill="#CCCCCC"/>
<path d="M188.83 201.67C189.508 201.67 190.059 201.119 190.059 200.44C190.059 199.76 189.508 199.209 188.83 199.209C188.151 199.209 187.601 199.76 187.601 200.44C187.601 201.119 188.151 201.67 188.83 201.67Z" fill="#CCCCCC"/>
<path d="M148.582 176.365C149.923 176.365 151.01 175.276 151.01 173.934C151.01 172.591 149.923 171.502 148.582 171.502C147.241 171.502 146.154 172.591 146.154 173.934C146.154 175.276 147.241 176.365 148.582 176.365Z" fill="#CCCCCC"/>
<path d="M176.228 144.361C177.003 144.361 177.631 143.732 177.631 142.957C177.631 142.181 177.003 141.552 176.228 141.552C175.453 141.552 174.825 142.181 174.825 142.957C174.825 143.732 175.453 144.361 176.228 144.361Z" fill="#CCCCCC"/>
<path d="M185.453 174.555C186.292 174.555 186.973 173.874 186.973 173.033C186.973 172.193 186.292 171.512 185.453 171.512C184.614 171.512 183.934 172.193 183.934 173.033C183.934 173.874 184.614 174.555 185.453 174.555Z" fill="#CCCCCC"/>
<path d="M267.282 252.909C268.623 251.786 266.811 247.408 263.236 243.132C259.661 238.856 255.676 236.301 254.336 237.425C252.995 238.549 254.807 242.926 258.382 247.202C261.957 251.478 265.942 254.033 267.282 252.909Z" fill="#2F2E41"/>
<path d="M239.359 261.856C250.497 261.856 259.526 252.814 259.526 241.661C259.526 230.507 250.497 221.466 239.359 221.466C228.221 221.466 219.192 230.507 219.192 241.661C219.192 252.814 228.221 261.856 239.359 261.856Z" fill="#2F2E41"/>
<path d="M247.895 257.51H241.768V268.502H247.895V257.51Z" fill="#2F2E41"/>
<path d="M235.641 257.51H229.515V268.502H235.641V257.51Z" fill="#2F2E41"/>
<path d="M242.789 270.547C245.609 270.547 247.895 269.689 247.895 268.63C247.895 267.571 245.609 266.713 242.789 266.713C239.969 266.713 237.684 267.571 237.684 268.63C237.684 269.689 239.969 270.547 242.789 270.547Z" fill="#2F2E41"/>
<path d="M230.536 270.292C233.355 270.292 235.641 269.433 235.641 268.375C235.641 267.316 233.355 266.457 230.536 266.457C227.716 266.457 225.43 267.316 225.43 268.375C225.43 269.433 227.716 270.292 230.536 270.292Z" fill="#2F2E41"/>
<path d="M233.026 216.275C234.827 209.013 242.776 204.739 250.781 206.729C258.785 208.72 263.815 216.22 262.014 223.483C260.213 230.745 254.239 230.768 246.234 228.778C238.229 226.787 231.226 223.537 233.026 216.275Z" fill="#E6E6E6"/>
<path d="M225.755 236.617C226.504 235.035 223.032 231.816 218 229.426C212.969 227.036 208.282 226.381 207.533 227.963C206.784 229.545 210.256 232.764 215.287 235.154C220.319 237.544 225.005 238.199 225.755 236.617Z" fill="#2F2E41"/>
<path d="M236.344 244.132C240.057 244.132 243.067 241.118 243.067 237.399C243.067 233.681 240.057 230.666 236.344 230.666C232.63 230.666 229.62 233.681 229.62 237.399C229.62 241.118 232.63 244.132 236.344 244.132Z" fill="white"/>
<path d="M233.58 237.23C234.818 237.23 235.822 236.225 235.822 234.986C235.822 233.746 234.818 232.741 233.58 232.741C232.343 232.741 231.339 233.746 231.339 234.986C231.339 236.225 232.343 237.23 233.58 237.23Z" fill="#3F3D56"/>
<path d="M240.562 251.427C240.667 252.007 240.657 252.602 240.533 253.179C240.409 253.755 240.173 254.301 239.838 254.785C239.503 255.27 239.076 255.684 238.581 256.004C238.086 256.323 237.534 256.542 236.954 256.647C236.375 256.753 235.781 256.743 235.206 256.619C234.63 256.495 234.085 256.258 233.601 255.922C233.117 255.587 232.704 255.159 232.385 254.664C232.065 254.169 231.847 253.615 231.742 253.035V253.035L231.74 253.027C231.299 250.587 233.182 249.724 235.619 249.282C238.055 248.841 240.121 248.988 240.562 251.427Z" fill="white"/>
<path d="M73.5561 227.542C75.5444 222.333 75.8323 217.603 74.1993 216.978C72.5662 216.353 69.6306 220.069 67.6423 225.279C65.654 230.488 65.366 235.217 66.999 235.842C68.6321 236.468 71.5678 232.751 73.5561 227.542Z" fill="#2F2E41"/>
<path d="M51.9587 261.856C63.0967 261.856 72.1259 252.814 72.1259 241.661C72.1259 230.507 63.0967 221.465 51.9587 221.465C40.8208 221.465 31.7916 230.507 31.7916 241.661C31.7916 252.814 40.8208 261.856 51.9587 261.856Z" fill="#2F2E41"/>
<path d="M48.8953 257.51H42.7686V268.502H48.8953V257.51Z" fill="#2F2E41"/>
<path d="M61.1488 257.51H55.0221V268.502H61.1488V257.51Z" fill="#2F2E41"/>
<path d="M47.8742 270.547C50.694 270.547 52.9798 269.689 52.9798 268.63C52.9798 267.571 50.694 266.713 47.8742 266.713C45.0545 266.713 42.7686 267.571 42.7686 268.63C42.7686 269.689 45.0545 270.547 47.8742 270.547Z" fill="#2F2E41"/>
<path d="M60.1277 270.292C62.9475 270.292 65.2333 269.433 65.2333 268.375C65.2333 267.316 62.9475 266.457 60.1277 266.457C57.308 266.457 55.0221 267.316 55.0221 268.375C55.0221 269.433 57.308 270.292 60.1277 270.292Z" fill="#2F2E41"/>
<path d="M52.4693 243.45C56.276 243.45 59.3619 240.36 59.3619 236.548C59.3619 232.736 56.276 229.646 52.4693 229.646C48.6627 229.646 45.5768 232.736 45.5768 236.548C45.5768 240.36 48.6627 243.45 52.4693 243.45Z" fill="white"/>
<path d="M52.4693 238.849C53.7382 238.849 54.7668 237.818 54.7668 236.548C54.7668 235.277 53.7382 234.247 52.4693 234.247C51.2004 234.247 50.1718 235.277 50.1718 236.548C50.1718 237.818 51.2004 238.849 52.4693 238.849Z" fill="#3F3D56"/>
<path d="M32.396 222.879C30.7676 215.577 35.9729 208.197 44.0225 206.397C52.072 204.598 59.9175 209.059 61.5459 216.361C63.1743 223.664 57.8396 226.358 49.7901 228.158C41.7405 229.958 34.0244 230.182 32.396 222.879Z" fill="#E6E6E6"/>
<path d="M38.3547 236.617C39.1038 235.035 35.6321 231.816 30.6004 229.426C25.5686 227.036 20.8823 226.381 20.1331 227.963C19.3839 229.545 22.8556 232.764 27.8873 235.154C32.9191 237.544 37.6055 238.199 38.3547 236.617Z" fill="#2F2E41"/>
<path d="M42.0527 248.946C42.0527 250.923 47.135 254.826 52.7745 254.826C58.414 254.826 63.7016 249.261 63.7016 247.285C63.7016 245.308 58.414 247.668 52.7745 247.668C47.135 247.668 42.0527 246.97 42.0527 248.946Z" fill="white"/>
<path d="M148.291 242.63C159.429 242.63 168.458 233.588 168.458 222.435C168.458 211.281 159.429 202.24 148.291 202.24C137.153 202.24 128.124 211.281 128.124 222.435C128.124 233.588 137.153 242.63 148.291 242.63Z" fill="#2F2E41"/>
<path d="M145.227 238.284H139.101V249.277H145.227V238.284Z" fill="#2F2E41"/>
<path d="M157.481 238.284H151.354V249.277H157.481V238.284Z" fill="#2F2E41"/>
<path d="M144.206 251.322C147.026 251.322 149.312 250.463 149.312 249.404C149.312 248.345 147.026 247.487 144.206 247.487C141.386 247.487 139.101 248.345 139.101 249.404C139.101 250.463 141.386 251.322 144.206 251.322Z" fill="#2F2E41"/>
<path d="M156.46 251.066C159.279 251.066 161.565 250.208 161.565 249.149C161.565 248.09 159.279 247.231 156.46 247.231C153.64 247.231 151.354 248.09 151.354 249.149C151.354 250.208 153.64 251.066 156.46 251.066Z" fill="#2F2E41"/>
<path d="M128.728 203.654C127.1 196.351 132.305 188.972 140.354 187.172C148.404 185.372 156.249 189.833 157.878 197.136C159.506 204.439 154.172 207.132 146.122 208.932C138.073 210.732 130.356 210.957 128.728 203.654Z" fill="#6C63FF"/>
<path d="M170.023 213.61C174.39 209.233 176.819 204.572 175.446 203.199C174.074 201.826 169.421 204.261 165.054 208.638C160.686 213.015 158.258 217.676 159.63 219.049C161.002 220.422 165.655 217.987 170.023 213.61Z" fill="#2F2E41"/>
<path d="M132.035 220.456C133.407 219.083 130.979 214.422 126.612 210.045C122.244 205.668 117.591 203.232 116.219 204.605C114.847 205.979 117.275 210.64 121.643 215.017C126.01 219.394 130.663 221.829 132.035 220.456Z" fill="#2F2E41"/>
<path d="M270.897 94.2633C270.227 73.5558 256.064 57.2107 239.263 57.7554C201.87 58.8649 200.957 127.532 237.059 132.464L236.294 138.549L247.444 138.187L246.289 132.165C260.811 128.951 271.504 113.037 270.897 94.2633Z" fill="#FF6584"/>
<path d="M220.668 105.744L216.456 105.881C214.805 98.0199 214.543 89.9298 215.683 81.9784L219.896 81.8418C218.34 90.1653 218.597 98.1328 220.668 105.744Z" fill="white"/>
<path d="M247.991 132.07L235.354 132.48L235.445 135.292L248.082 134.882L247.991 132.07Z" fill="#3F3D56"/>
<path d="M211.287 239.747L210.014 239.151L241.3 132.906L242.573 133.503L211.287 239.747Z" fill="#3F3D56"/>
<path d="M296.791 111.774C304.431 92.5203 297.961 71.8725 282.339 65.656C247.612 51.7265 219.404 114.32 250.538 133.274L247.412 138.547L257.779 142.672L259.12 136.689C273.717 139.547 289.864 129.23 296.791 111.774Z" fill="#6C63FF"/>
<path d="M246.161 102.223L242.245 100.665C243.864 92.7969 246.849 85.2748 251.064 78.4399L254.981 79.9985C250.236 87.0082 247.297 94.4164 246.161 102.223Z" fill="white"/>
<path d="M248.969 132.607L247.931 135.221L259.681 139.897L260.719 137.282L248.969 132.607Z" fill="#3F3D56"/>
<path d="M211.04 236.951L209.819 236.255L253.498 136.436L254.719 137.132L211.04 236.951Z" fill="#3F3D56"/>
<path d="M59.3729 95.6012C51.1065 76.6085 31.913 66.6641 16.5029 73.3899C-17.8314 88.2631 6.66881 152.404 42.0338 143.622L43.5698 149.559L53.7963 145.095L50.4993 139.928C62.8067 131.565 66.8673 112.82 59.3729 95.6012Z" fill="#6C63FF"/>
<path d="M16.9408 124.863L13.0773 126.549C8.64115 119.856 5.41162 112.436 3.53554 104.626L7.39896 102.939C9.02606 111.249 12.2067 118.557 16.9408 124.863Z" fill="white"/>
<path d="M52.0459 139.21L40.4557 144.268L41.5783 146.848L53.1685 141.789L52.0459 139.21Z" fill="#3F3D56"/>
<path d="M78.8619 240.019C78.6811 240.064 78.4899 240.035 78.3303 239.939C78.1708 239.843 78.056 239.687 78.0111 239.506L47.4765 142.619L48.8399 142.28L79.3745 239.167C79.3967 239.257 79.4011 239.35 79.3873 239.441C79.3736 239.533 79.342 239.62 79.2944 239.699C79.2468 239.779 79.1841 239.848 79.1099 239.902C79.0357 239.957 78.9514 239.997 78.8619 240.019Z" fill="#3F3D56"/>
<path d="M87.0225 270.652H13.5043C13.3801 270.652 13.261 270.603 13.1732 270.515C13.0854 270.427 13.036 270.308 13.036 270.183C13.036 270.059 13.0854 269.94 13.1732 269.852C13.261 269.764 13.3801 269.714 13.5043 269.714H87.0225C87.1467 269.714 87.2658 269.764 87.3536 269.852C87.4415 269.94 87.4908 270.059 87.4908 270.183C87.4908 270.308 87.4415 270.427 87.3536 270.515C87.2658 270.603 87.1467 270.652 87.0225 270.652Z" fill="#CCCCCC"/>
<path d="M273.862 270.652H200.344C200.22 270.652 200.1 270.603 200.013 270.515C199.925 270.427 199.875 270.308 199.875 270.183C199.875 270.059 199.925 269.94 200.013 269.852C200.1 269.764 200.22 269.714 200.344 269.714H273.862C273.986 269.714 274.105 269.764 274.193 269.852C274.281 269.94 274.33 270.059 274.33 270.183C274.33 270.308 274.281 270.427 274.193 270.515C274.105 270.603 273.986 270.652 273.862 270.652Z" fill="#CCCCCC"/>
<path d="M186.296 251.426H112.777C112.653 251.426 112.534 251.377 112.446 251.289C112.358 251.201 112.309 251.082 112.309 250.957C112.309 250.833 112.358 250.714 112.446 250.626C112.534 250.538 112.653 250.489 112.777 250.489H186.296C186.42 250.489 186.539 250.538 186.627 250.626C186.715 250.714 186.764 250.833 186.764 250.957C186.764 251.082 186.715 251.201 186.627 251.289C186.539 251.377 186.42 251.426 186.296 251.426Z" fill="#CCCCCC"/>
<path d="M147.442 226.475C151.249 226.475 154.335 223.385 154.335 219.573C154.335 215.761 151.249 212.671 147.442 212.671C143.636 212.671 140.55 215.761 140.55 219.573C140.55 223.385 143.636 226.475 147.442 226.475Z" fill="white"/>
<path d="M147.442 221.874C148.711 221.874 149.74 220.844 149.74 219.573C149.74 218.302 148.711 217.272 147.442 217.272C146.173 217.272 145.145 218.302 145.145 219.573C145.145 220.844 146.173 221.874 147.442 221.874Z" fill="#3F3D56"/>
<path d="M152.914 232.338C153.127 233.509 152.866 234.717 152.19 235.696C151.513 236.675 150.476 237.345 149.306 237.558C148.137 237.771 146.931 237.511 145.953 236.833C144.975 236.156 144.307 235.117 144.094 233.946L144.092 233.937C143.651 231.498 145.535 230.635 147.971 230.193C150.407 229.752 152.473 229.899 152.914 232.338Z" fill="white"/>
</g>
<defs>
<clipPath id="clip0">
<rect width="300" height="270.652" fill="white"/>
</clipPath>
</defs>
</svg>
